<?xml version="1.0" encoding="UTF-8"?>
<!DOCTYPE svg PUBLIC "-//W3C//DTD SVG 1.1//EN" "http://www.w3.org/Graphics/SVG/1.1/DTD/svg11.dtd">
<!-- Creator: CorelDRAW 2026 -->
<svg xmlns="http://www.w3.org/2000/svg" xml:space="preserve" width="64.1928mm" height="25.3798mm" version="1.1" style="shape-rendering:geometricPrecision; text-rendering:geometricPrecision; image-rendering:optimizeQuality; fill-rule:evenodd; clip-rule:evenodd"
viewBox="0 0 468.39 185.19"
 xmlns:xlink="http://www.w3.org/1999/xlink"
 xmlns:xodm="http://www.corel.com/coreldraw/odm/2003">
 <defs>
  <style type="text/css">
   <![CDATA[
    .str0 {stroke:lime;stroke-width:1.46;stroke-miterlimit:22.9256}
    .fil0 {fill:none}
   ]]>
  </style>
 </defs>
 <g id="Слой_x0020_1">
  <metadata id="CorelCorpID_0Corel-Layer"/>
  <path class="fil0 str0" d="M158.24 172.76l1.49 -0.07c3.41,-0.28 4.15,-0.18 7.76,-0.17l2.43 0.01c0.08,0.01 0.14,0.02 0.21,0.04 0.06,0.01 0.13,0.04 0.19,0.05 1.62,0.43 0.89,1.33 1.81,3.07 -1.39,0 -1.69,0.24 -3.17,0.24 -2.19,0 -6.57,0.08 -8.48,-0.29 -1.23,-0.24 -2.21,-1.68 -2.24,-2.87zm0 -157.42c0.18,-0.69 0.49,-1 1.06,-1.37 1.43,-0.94 4.5,-0.21 5.76,0.89 -1.21,0.03 -1.93,0.43 -3.17,0.49 -1.16,0.06 -2.48,-0 -3.66,-0zm-108.68 1.46l-3.17 1.71c-0.99,0 -3.85,-0.92 -4.94,-1.4 -0.53,-0.23 -0.86,-0.52 -1.39,-0.8 0,-2.14 0.42,-4.39 -1.55,-5.76 -0.91,-0.63 -4.45,-1.31 -6,-1.31 -2.55,0 -5.82,1.28 -7.83,1.92 -1.26,0.4 -2.51,0.69 -3.82,1.05 -2.32,0.64 -2.97,0.97 -2.97,3.12 0,2.73 2.99,1.96 4.4,2.91 0.69,0.46 0.22,2.11 0.22,2.94 0,1.22 0,2.44 0,3.66 -1.88,0.16 -2.94,1.24 -4.68,1.66 -4.26,1.03 -8.04,2.71 -12.22,3.86 -0.94,0.26 -2.11,0.31 -2.11,1.3 0,1.85 2.58,1.9 3.92,2.17 2.23,0.46 10.28,2.52 12.24,3.36 0.89,0.38 1.24,0.71 2.36,0.8 0,1.24 0.6,0.96 -0.66,1.76 -4.99,3.18 -1.95,3.25 -3.09,11.05l-0.63 5.46c-0.66,0.15 -1.34,0.49 -1.98,0.7l-6.71 2.07c-1.5,0.49 -2.74,0.92 -4.2,1.41 -0.69,0.23 -1.59,0.44 -2.27,0.65 -1.02,0.32 -1.18,0.47 -1.42,1.51 0.87,1.29 1.73,1.17 3.55,1.56l10.25 2.67c3.4,0.84 2.67,0.39 3,4.31l-0.38 12.5c-0.3,1.14 -0.33,0.87 -0.33,2.35 -4.37,1.02 -8.42,2.44 -12.72,3.61 -2.07,0.56 -2.69,0.27 -3.61,2 0.95,1.8 2.17,1.46 4.73,2.1 2.81,0.7 8.13,2.15 10.74,3.15 1.16,0.44 1.01,0.87 1.11,2.3l0.23 6.35c0,1.03 -0.18,1.35 -0.2,1.97l0.2 4.85c0,1.42 -0.13,2.11 -0.21,3.2 -0.21,2.75 -0.84,1.47 -6.76,3.47 -1.87,0.63 -3.43,0.89 -5.37,1.45 -1.27,0.37 -4.47,0.61 -4.47,2.35 0,1.32 6.38,2.65 8.19,3.26 1.49,0.5 2.88,0.93 4.29,1.32 1.45,0.4 2.95,1.19 4.33,1.51 0,1.49 0.75,6.72 0.73,9.99 -0.05,6.47 3.39,3.84 3.66,7.07 -0.87,0.2 -1.78,0.27 -2.47,0.7 -0.46,0.29 -0.22,0.31 -0.88,0.59l-14.44 3.59c-1.15,0.26 -1.44,0.54 -1.71,1.7 1.5,1.72 7.75,2.95 9.81,3.6l6.38 1.9c1.28,0.55 1.61,1.11 3.55,1.57l0 6.82c-0.35,0.03 -2.44,0.24 -2.83,0.34 -1.78,0.45 -2.16,2.78 -1.23,4.21 0.75,1.15 6.09,2.11 7.52,2.47 1.33,0.33 4.17,1.02 5.56,1.02 8.55,0 8.53,-0.86 8.53,-6.82 1.27,-0.11 3.76,-1.41 5.21,-1.88 1.11,-0.36 3.95,1.08 4.54,2.13 1.11,1.99 -0.48,2.43 2.57,4.74 1.84,1.39 2.64,1.6 5.72,1.6 0.28,0.58 0.24,1.06 0.49,1.71 0.89,2.39 2.15,2 4.72,2.59 5.45,1.24 10.51,2.54 16.01,3 6.98,0.58 7.92,0.75 15.33,0.75l16.05 -0.76c1.41,-0.15 3.19,-0.54 4.76,-0.84 1.92,-0.36 14.79,-2.54 16.27,-3.47 1.52,-0.96 -0.25,-2.03 3.89,-1.3 2.62,0.46 1.73,-0.02 4.1,1.26 3.01,1.64 7.56,0.42 7.56,-3.66 1.76,0 2.24,1.23 3.35,2.5 0.47,0.53 0.87,0.81 1.31,1.37 1,1.25 3.81,4.87 5.1,5.38 0.64,0.25 1.35,0.51 2.17,0.51l17.3 0c2.36,0 3,-1.36 4.29,-2.54 2.46,-2.23 6.3,-1.61 9.36,-1.61 3.48,0 3.61,0.32 7.32,0.01 3.16,-0.26 8.78,-0.06 12.18,-0.02 1.45,0.02 2.19,0.26 3.89,0.25l15.11 -0.25c3.9,0 10.04,1.1 11.21,-3.9l1.95 0c0,1.51 -0.14,3.9 1.95,3.9 1.16,0 4.26,-1.16 5.2,-1.62 0.84,-0.41 1.51,-0.69 2.31,-1.1 0.79,-0.4 1.29,-1.42 1.99,-1.42l22.66 0c2.46,0 4.06,0.19 6.35,0.22 1.68,0.03 1.17,0.29 2.31,1.1 3.38,2.41 7.8,-0.1 8.15,-4.25 4.61,0 8.86,1.81 13.4,2.19 0,5.53 0.66,5 4.42,6.06 1.88,0.53 2.25,0.62 3.09,2.27 0.69,1.33 1.49,1.91 3.45,1.91 0.22,-0.84 0.78,-1.4 1.2,-2.21l0.26 -0.47c-0.68,-0.93 -0.64,-0.04 -0.97,-1.46 0.2,-0.14 0.6,-0.49 0.73,-0.49 5.38,0 10.07,0.98 15.6,0.97 2.94,-0 5.03,0.24 8.05,0.24l3.51 0.16c1.85,0.18 3.8,-0.15 5.75,-0.15 1.46,0 2.11,0.16 3.19,0.24l22.89 -1.07c4.69,0 2.46,-1.13 3.89,-2.58l3.39 -1.72c1.91,-1.23 2.24,-0.29 4.14,-0.97 0.82,-0.3 1.44,-0.76 2.16,-1.25 0.73,-0.49 3.7,-2.63 4.43,-2.63 1.3,0 4.02,2.92 7.07,2.92 1.4,0 3.82,-2.37 4.92,-3.12l3.5 -2.36c1.5,-0.88 1.7,0.97 5.52,-1.29 2.95,-1.75 2.27,-3.88 3.66,-5.11l5.27 -3.75c2.15,-1.6 2.83,-2.89 2.97,-5.81 0.04,-0.79 0.11,-1.15 0.24,-1.95 0.2,-1.26 0.48,-1.56 0.48,-2.69 3.17,0 1.87,-0.77 5.35,-0.98l16.15 -2.37c2.08,-0.72 4.73,-0.77 6.9,-1.14 2.25,-0.38 8.63,-0.75 8.63,-2.09 0,-1.54 -2.22,-1.51 -3.8,-1.81l-13.64 -2.45c-3.35,-0.51 -6.02,-0.94 -9.3,-1.42 -2.08,-0.3 -5.83,-0.64 -7.75,-1.51 -0.5,-0.23 -0.59,-0.25 -1.1,-0.37 0,-1.5 -0.37,-3.25 0.13,-4.5 0.58,-1.44 1.33,-0.66 1.33,-4.27 0,-2.1 -1.22,-2.25 -1.22,-3.66 0,-1.78 0.49,-2.36 0.49,-4.14l4.28 -1.08c2.8,-0.71 11.13,-2.04 14,-2.32 1.72,-0.17 2.58,-0.75 4.28,-1.08 3.23,-0.63 11.07,-2.33 13.99,-2.33 0.64,-2.73 -0.85,-2.16 -3.55,-2.54l-11.76 -1.39c-0.86,-0.16 -1.24,-0.51 -2.04,-0.64 -1.5,-0.25 -3.33,-0.3 -4.64,-0.47l-9.66 -1.07c-2.02,-0.23 -3.67,-0.94 -4.41,-0.95 -0.33,-1.41 -0.62,-2.42 -0.52,-3.92 0.13,-1.92 -0.02,-3.77 0.21,-5.41 0.23,-1.65 -0.35,-3.41 -0.31,-4.78l-0.08 -2.21c-0,-0.76 0.22,-1.49 0.22,-2.68l18.06 -3.15c1.57,-0.12 1.01,0.12 2.25,-0.43 0.99,-0.43 1.04,-0.27 2.25,-0.43 3.79,-0.51 10.56,-1.28 14,-2.09 0.24,-1.01 0.23,-0.95 0,-1.95 -2.66,-0.62 -6.01,-0.9 -8.98,-1.26l-13.31 -2.29c-3.01,-0.47 -5.97,-1.16 -8.92,-1.32 -2.32,-0.12 -3.64,-0.74 -5.84,-0.74l-0.24 -4.39c0,-0.75 1.73,-1.72 0.96,-5.34 -0.57,-2.67 -1.2,0.27 -1.2,-6.6 1.25,-0.1 0.96,-0.42 1.79,-0.65l15.77 -2.75c0.89,-0.07 1.32,-0.06 2.05,-0.38 4.13,-1.85 15,-1.63 15,-4.01 0,-1.26 -2.69,-1.24 -3.73,-1.39 -1.61,-0.23 -3.2,-0.47 -4.8,-0.56 -1.75,-0.1 -2.64,-0.39 -4.63,-0.48 -1.28,-0.06 -0.99,-0.26 -2.13,-0.55 -0.45,-0.11 -1.86,-0.31 -2.32,-0.36 -0.8,-0.1 -1.51,-0.02 -2.31,-0.13l-13.53 -2.05c-0.79,-0.33 -1.31,-0.38 -2.12,-0.57 -1.59,-3.32 -0.2,-7.61 -2.92,-9.51l-3.84 -2.5c-0.89,-0.74 -0.62,-0.8 -1.78,-1.39 -2.24,-1.15 -1.76,-3.93 -4.66,-5.09 -4.36,-1.75 -3.56,0.17 -5.04,-1.03 -1.51,-1.23 -6.66,-5.09 -8.09,-5.09 -3.91,0 -3.37,1.37 -6.44,2.58 -2.02,0.79 -3.76,-0.63 -5.35,-1.75 -4.47,-3.16 -5.25,-0.58 -7.7,-0.58 -0.7,0 -0.66,-0.49 -2.19,-0.49 0,-1.74 0.19,-5.66 -1.37,-6.67 -2.48,-1.62 -7.58,-2.44 -10.67,-3.22 -3.14,-0.79 -6.04,-1.42 -9.4,-1.56 -3.53,-0.15 -6.85,-0.49 -10.72,-0.49 -3.25,0 -5.7,0.23 -8.78,0.23 -1.46,0 -2.72,0.28 -3.93,0.45 -6.03,0.85 -9.06,1.72 -14.77,3.26 -1.18,0.32 -2.2,0.93 -3.7,0.93 0,-1.3 0.58,-4.14 -1.46,-4.14 -1.16,0 -2.19,1.57 -2.6,2.52 -0.74,1.72 -0.65,1.39 -3.15,1.96 -4.53,1.04 -4,0.93 -4,5.75 -1.93,1.02 -8.05,2.5 -10.32,3.1 -1.37,0.36 -2.6,0.07 -4.05,0.07 -1.01,-1.9 -2.75,-2.68 -5.12,-2.68 -2.56,0 -1.86,1.32 -4.61,1.48 -1.06,0.06 -0.93,0.17 -1.96,0.23 -2.67,0.14 -5.81,-0 -8.53,-0 -5.69,0 -11.37,0 -17.06,0 -0.52,-2.24 -1.35,-6.55 -3.48,-7.73 -1.28,-0.7 -6.6,-3.48 -7.73,-3.48 -0.77,0 -1.66,0.86 -1.86,1.56 -0.18,0.63 0.11,2.43 0.22,3.24 0.26,1.86 0.91,4.19 0.91,6.4 -12.35,0 -8.69,0.79 -11.8,-3.31 -1.06,-1.39 -1.92,-2.3 -3.55,-3.03l-5.35 -1.23c-2.43,-0.06 -3.94,0.26 -6.35,0.26 -1.57,0 -2.04,-0.26 -3.41,-0.26 -1.37,0 -1.84,0.26 -3.41,0.26 -1.75,0 -1.74,-0.27 -3.48,-0.06 -1.29,0.15 -2.06,-0.43 -3.34,-0.43 -1.16,0 -1.73,0.49 -2.68,0.49 -1.29,0 -1.41,-0.25 -2.44,-0.25 -2.04,0 -2.09,0.35 -4.91,0.04 -3.98,-0.45 -9.12,0.18 -11.69,3.1 -0.56,0.63 -0.11,0.48 -1.19,0.76 -2.38,0.62 -2.84,-0.36 -4.92,-1.66 -8.42,-5.26 -5.29,-5.16 -16.52,-5.16 -1.39,0 -4.24,2.88 -5.18,3.84 -0.85,0.86 -1.48,1.21 -2.31,2.07 -0.88,0.9 -1.32,1.65 -2.98,1.65 -1.05,-4.51 -1.66,-5.12 -5.85,-5.12 -0.88,0 -1.39,0.24 -2.01,0.43 -3.34,1.01 -2.31,1.03 -7.01,1.03 -0.34,-0.71 -0.36,-1.4 -0.89,-2.04 -0.86,-1.03 -5.14,-1.81 -6.51,-2.26l-9.27 -2.67c-3.99,-1 -8.12,-1.94 -12.33,-2.22 -0.13,-0.01 -0.46,-0 -0.52,-0.01 -4.85,-0.12 -10.05,-0.65 -14.94,0.07 -2.35,0.34 -4.9,0.48 -7.03,0.77 -9.31,1.24 -13.25,2.93 -21.17,6.12 -1.36,0.55 -1.29,0.89 -1.86,2.04 -0.79,1.59 -2.06,0.22 -5.31,2 -2.44,1.35 -3.02,1.85 -3.02,4.77z"/>
 </g>
</svg>
