<?xml version="1.0" encoding="UTF-8"?>
<!DOCTYPE svg PUBLIC "-//W3C//DTD SVG 1.1//EN" "http://www.w3.org/Graphics/SVG/1.1/DTD/svg11.dtd">
<!-- Creator: CorelDRAW 2026 -->
<svg xmlns="http://www.w3.org/2000/svg" xml:space="preserve" width="63.7031mm" height="26.7153mm" version="1.1" style="shape-rendering:geometricPrecision; text-rendering:geometricPrecision; image-rendering:optimizeQuality; fill-rule:evenodd; clip-rule:evenodd"
viewBox="0 0 394.55 165.46"
 xmlns:xlink="http://www.w3.org/1999/xlink"
 xmlns:xodm="http://www.corel.com/coreldraw/odm/2003">
 <defs>
  <style type="text/css">
   <![CDATA[
    .str0 {stroke:lime;stroke-width:1.24;stroke-miterlimit:22.9256}
    .fil0 {fill:none}
   ]]>
  </style>
 </defs>
 <g id="Слой_x0020_1">
  <metadata id="CorelCorpID_0Corel-Layer"/>
  <path class="fil0 str0" d="M209.85 154.82l-3.67 -0.52c1.61,-3.03 0.88,-2.62 6.29,-2.62 1.42,0 1.45,0.25 2.62,0.52 -1.18,1.76 -2.3,2.62 -5.24,2.62zm-62.4 -3.15l6.29 0c0.7,1.04 0.95,1.45 1.57,2.62l-6.29 0c-0.7,-1.04 -0.95,-1.45 -1.57,-2.62zm-134.24 -19.4l0.6 1.02 -0.6 -1.02zm0 0l-0.6 -1.02 0.6 1.02zm-2.1 -4.2l0.16 0.16c-0.01,-0.01 -0.21,-0.1 -0.16,-0.16zm-0.52 -1.57zm-0.52 -1.05l0.52 1.05zm-0.52 -1.05l0.52 1.05 -0.52 -1.05zm-0.52 -1.57c0.54,0.58 0.52,-0.92 0.52,1.57 -0.54,-0.58 -0.52,0.92 -0.52,-1.57zm-0.52 -1.05l0.52 1.05 -0.52 -1.05zm-0.52 -1.05l0.52 1.05 -0.52 -1.05zm0 0l-0.6 -1.02 0.6 1.02zm-1.05 -2.62l0.6 1.02 -0.6 -1.02zm0 0l-0.6 -1.02 0.6 1.02zm-1.05 -2.1c0,-1.34 0.83,-0.08 0.31,0 -0.01,0 -0.31,1.46 -0.31,0zm375.98 -61.88c1.6,0.43 2.45,1.28 3.67,2.1 0,3.43 0.34,6.21 0.52,9.96l0 33.04c-0.01,4.81 -0.28,7.35 -4.19,8.39 4.24,-8.02 0.51,-6.87 1.06,-13.07 0.93,-10.49 -0.35,-28.81 0.22,-31.3 0.67,-2.95 1.23,-3.89 -1.28,-9.12zm-371.79 -18.35c-0.16,1.98 -2.1,5.93 -3.11,7.9 -0.05,0.1 -0.14,0.25 -0.18,0.34l-0.38 0.67c0.04,-1.93 2.32,-7.36 3.67,-8.91zm0.52 -1.57c0,2.49 0.01,0.99 -0.52,1.57 0,-2.49 -0.01,-0.99 0.52,-1.57zm0 0zm0.52 -1.57l-0.52 1.57zm0.52 -1.57c0,-1.34 0.83,-0.08 0.31,0 -0.01,0 -0.31,1.46 -0.31,0zm1.05 -2.1l-0.29 1.13 0.29 -1.13zm0 0l0.29 -1.13 -0.29 1.13zm193.5 -18.35c4.15,0 3.26,-0.67 4.72,2.1 -0.76,0 -2.4,0.09 -3.05,-0.1 -2.03,-0.6 -1.03,-0.78 -1.67,-2zm-57.68 1.57c1.28,-1.75 0.54,-1.05 6.82,-1.05 -1.54,2.3 -0.43,1.05 -6.82,1.05zm-146.83 30.94c0,2.92 1.03,3.05 1.07,6.79 0.04,3.44 -0.41,5.21 -0.55,7.89 -0.15,2.72 0.16,5.72 0.02,8.42 -0.17,3.35 -1.6,3.36 -1.6,6.79 0,12.27 -0.05,7.18 1.21,16.62 0.59,4.39 0.13,11.66 0.76,16.05 1.3,9.08 -5.08,3.22 4.15,21.52 1.02,2.03 1.95,4.31 2.7,6.21 2.3,5.75 10.84,5.18 15.53,8.59 0.69,0.5 0.28,0.37 1.51,1.11 3.78,2.28 8.24,3.44 12.01,5.82 4.79,3.02 5.1,4.38 11.11,6.72 4.43,1.73 10.07,1.77 15.44,2.39 1.22,0.14 2.06,0.5 3.44,0.76l23.3 3c3.49,0.14 5.47,0.64 8.26,-1.42 7.44,-5.48 5.58,-4.51 15.42,-4.51 10.12,0 9.23,1.82 16.04,-3.89 3.6,-3.02 3.05,-2.93 7.56,-2.93 2.06,0 5.22,6.31 7.83,7.38 3.13,1.29 11.01,0.49 15.25,0.48 5.77,-0 9.5,0.53 15.21,0.52l33.56 0c4.89,0 7.34,-1.77 9.34,-4.82 3.12,-4.77 3.3,-3.57 10.59,-3.57 -1.16,2.41 -7.27,12.59 -1.57,12.59 5.45,0 10.65,-4.71 13.49,-8.54 4.33,-5.84 2.25,-4.05 20.08,-4.05 1.72,0 5.35,4.66 6.8,5.79 5.84,4.52 14.94,0.45 22.23,2.94 6.51,2.23 3.99,6.11 16.89,3.64 7.36,-1.41 13.94,-2.6 21.75,-2.92 3.13,-0.13 3.73,-0.92 5.17,-2.7 2.06,-2.54 5.85,-6.81 8.62,-8.16l8 -4.06c1.3,-0.58 1.5,-0.85 2.68,-1.51 4.14,-2.35 8.69,-3.14 12.68,-5.68l11.89 -6.46c1.26,-0.47 1.89,-0.63 2.66,-1.53 1.18,-1.39 1.57,-4.87 1.6,-6.71 0.03,-2.28 -1.24,-4.1 -3.49,-4.62 0.21,-2.47 0.7,-1.94 2.93,-3.36 9.44,-6.03 10.27,-6.54 10.19,-21.28 -0.03,-4.78 0.53,-7.89 0.54,-12.06l-1.09 -24.11c-0.41,-6.17 -4.15,-7.79 -8.48,-10.4 -1.31,-0.79 -2.62,-1.81 -4.09,-2.2l0 -2.1c3.87,-1.03 3.15,-4.68 3.15,-7.87 0,-5.54 -4.08,-4.33 -7.51,-5.22 -2.98,-0.78 -7.3,-3.13 -9.58,-4.95 -1.23,-0.98 -1.87,-1.97 -3.04,-2.73 -2.59,-1.67 -6.29,-1.71 -8.49,-3.05l-7.56 -3.97c-1.37,-0.53 -2.69,-0.94 -3.98,-1.79l-6.11 -5.43c-1,-1.15 -1.48,-2.18 -2.58,-3.19 -2.23,-2.05 -6.44,-1.77 -9.28,-2.25 -6.02,-1.03 -13.45,-2.55 -20.14,-1.65 -5.97,0.8 -4.67,-0.79 -9.4,2.14 -2.72,1.68 -4.5,2.72 -8.79,2.75 -15.61,0.09 -13.62,-0.16 -21.61,7.23 -1.68,1.55 -1.54,1.19 -4.61,1.16 -3.85,-0.04 -7.71,-0.03 -11.56,-0.03 -0.45,-1.95 -1.32,-2.79 -2.41,-4.41l-2.85 -4.49c-2.38,-3.3 -7.83,-5.26 -12.05,-5.26 -3.77,0 -0.43,7.42 0.47,10.02 0.56,1.63 1.06,2 1.11,4.14 -17.21,0 -8.61,0.18 -15.52,-5.46 -1.54,-1.26 -3.29,-1.88 -5.46,-1.88l-61.88 0c-6.84,0 -7.74,6.29 -10.49,6.29 -9.53,0 -5,0.16 -11.44,-4.82 -2.77,-2.15 -6.37,-1.33 -10.21,-1.85 -8.56,-1.17 -7.48,2.26 -15.29,-2.54 -0.88,-0.54 -1.21,-0.68 -1.94,-1.2 -3.22,-2.26 -7.36,-3.1 -11.97,-3.23 -6.24,-0.19 -29.56,1.36 -34.26,1.96 -5.76,0.74 -5.07,0.41 -9.46,2.6 -3.94,1.97 -7.09,4.59 -10.43,7.4 -1.45,1.22 -1.86,1.63 -3.84,2.46l-17.89 6.23c-2.1,0.87 -1.95,1.25 -2.76,3.01l-5.66 12.69c-1.15,2.69 -3.3,5.42 -3.3,8.76z"/>
 </g>
</svg>
